<?xml version="1.0" standalone="no"?><!-- Generator: Gravit.io --><svg xmlns="http://www.w3.org/2000/svg" xmlns:xlink="http://www.w3.org/1999/xlink" style="isolation:isolate" viewBox="0 0 720 140" width="720" height="140"><defs><clipPath id="_clipPath_vU3X2dNmTWP4NqZlDmhXbYykUtmV1Ihh"><rect width="720" height="140"/></clipPath></defs><g clip-path="url(#_clipPath_vU3X2dNmTWP4NqZlDmhXbYykUtmV1Ihh)"><g id="Group"><g id="Group"><linearGradient id="_lgradient_4" x1="6.10148555735459%" y1="6.998580157768597%" x2="79.76888223435377%" y2="91.62384697207038%"><stop offset="0%" stop-opacity="0.75" style="stop-color:rgb(77,191,164)"/><stop offset="100%" stop-opacity="0.75" style="stop-color:rgb(77,191,182)"/></linearGradient><path d=" M 31.054 73.68 L 106.754 105.784 L 96.484 126.438 C 94.315 130.8 89.644 131.662 86.061 128.362 L 29.421 76.213 C 25.838 72.913 26.569 71.779 31.054 73.68 Z " fill="url(#_lgradient_4)"/><linearGradient id="_lgradient_5" x1="5.606817678740741%" y1="5.288586431571613%" x2="87.83024353050861%" y2="89.26837212460381%"><stop offset="0%" stop-opacity="0.75" style="stop-color:rgb(82,196,204)"/><stop offset="100%" stop-opacity="0.75" style="stop-color:rgb(82,204,196)"/></linearGradient><path d=" M 148.617 13.498 L 70.554 103.635 L 68.968 105.221 C 68.187 106.002 66.684 106.853 65.613 107.12 L 63.554 107.635 L 85.368 127.724 C 89.334 131.376 94.499 130.42 96.896 125.591 L 151.558 15.456 C 154.993 8.535 153.675 7.657 148.617 13.498 Z " fill="url(#_lgradient_5)"/></g><path d=" M 195.317 70.894 L 217.397 70.894 L 217.397 74.298 L 217.397 74.298 Q 217.397 86.534 209.899 93.158 L 209.899 93.158 L 209.899 93.158 Q 202.401 99.782 189.705 99.782 L 189.705 99.782 L 189.705 99.782 Q 180.781 99.782 174.019 96.378 L 174.019 96.378 L 174.019 96.378 Q 167.257 92.974 163.623 86.764 L 163.623 86.764 L 163.623 86.764 Q 159.989 80.554 159.989 72.55 L 159.989 72.55 L 159.989 72.55 Q 159.989 64.546 163.577 58.336 L 163.577 58.336 L 163.577 58.336 Q 167.165 52.126 173.651 48.722 L 173.651 48.722 L 173.651 48.722 Q 180.137 45.318 188.509 45.318 L 188.509 45.318 L 188.509 45.318 Q 194.397 45.318 198.859 47.112 L 198.859 47.112 L 198.859 47.112 Q 203.321 48.906 206.173 52.218 L 206.173 52.218 L 206.173 46.238 L 215.005 46.238 L 215.005 64.086 L 207.369 64.086 L 207.369 64.086 Q 202.493 54.058 190.993 54.058 L 190.993 54.058 L 190.993 54.058 Q 182.897 54.058 178.113 58.934 L 178.113 58.934 L 178.113 58.934 Q 173.329 63.81 173.329 72.274 L 173.329 72.274 L 173.329 72.274 Q 173.329 80.922 177.929 85.936 L 177.929 85.936 L 177.929 85.936 Q 182.529 90.95 190.257 90.95 L 190.257 90.95 L 190.257 90.95 Q 196.605 90.858 200.653 87.868 L 200.653 87.868 L 200.653 87.868 Q 204.701 84.878 205.161 78.806 L 205.161 78.806 L 195.317 78.806 L 195.317 70.894 Z  M 255.301 99.874 L 255.301 99.874 Q 246.561 99.874 239.845 96.378 L 239.845 96.378 L 239.845 96.378 Q 233.129 92.882 229.495 86.672 L 229.495 86.672 L 229.495 86.672 Q 225.861 80.462 225.861 72.734 L 225.861 72.734 L 225.861 72.734 Q 225.861 64.914 229.495 58.658 L 229.495 58.658 L 229.495 58.658 Q 233.129 52.402 239.845 48.86 L 239.845 48.86 L 239.845 48.86 Q 246.561 45.318 255.301 45.318 L 255.301 45.318 L 255.301 45.318 Q 264.041 45.318 270.711 48.86 L 270.711 48.86 L 270.711 48.86 Q 277.381 52.402 281.015 58.658 L 281.015 58.658 L 281.015 58.658 Q 284.649 64.914 284.649 72.642 L 284.649 72.642 L 284.649 72.642 Q 284.649 80.462 281.015 86.672 L 281.015 86.672 L 281.015 86.672 Q 277.381 92.882 270.711 96.378 L 270.711 96.378 L 270.711 96.378 Q 264.041 99.874 255.301 99.874 L 255.301 99.874 Z  M 255.301 91.042 L 255.301 91.042 Q 262.661 91.042 267.031 85.798 L 267.031 85.798 L 267.031 85.798 Q 271.401 80.554 271.401 72.458 L 271.401 72.458 L 271.401 72.458 Q 271.401 64.362 267.123 59.21 L 267.123 59.21 L 267.123 59.21 Q 262.845 54.058 255.485 54.058 L 255.485 54.058 L 255.485 54.058 Q 247.941 54.058 243.525 59.164 L 243.525 59.164 L 243.525 59.164 Q 239.109 64.27 239.109 72.55 L 239.109 72.55 L 239.109 72.55 Q 239.109 80.646 243.479 85.844 L 243.479 85.844 L 243.479 85.844 Q 247.849 91.042 255.301 91.042 L 255.301 91.042 Z  M 321.725 99.874 L 321.725 99.874 Q 312.985 99.874 306.269 96.378 L 306.269 96.378 L 306.269 96.378 Q 299.553 92.882 295.919 86.672 L 295.919 86.672 L 295.919 86.672 Q 292.285 80.462 292.285 72.734 L 292.285 72.734 L 292.285 72.734 Q 292.285 64.914 295.919 58.658 L 295.919 58.658 L 295.919 58.658 Q 299.553 52.402 306.269 48.86 L 306.269 48.86 L 306.269 48.86 Q 312.985 45.318 321.725 45.318 L 321.725 45.318 L 321.725 45.318 Q 330.465 45.318 337.135 48.86 L 337.135 48.86 L 337.135 48.86 Q 343.805 52.402 347.439 58.658 L 347.439 58.658 L 347.439 58.658 Q 351.073 64.914 351.073 72.642 L 351.073 72.642 L 351.073 72.642 Q 351.073 80.462 347.439 86.672 L 347.439 86.672 L 347.439 86.672 Q 343.805 92.882 337.135 96.378 L 337.135 96.378 L 337.135 96.378 Q 330.465 99.874 321.725 99.874 L 321.725 99.874 Z  M 321.725 91.042 L 321.725 91.042 Q 329.085 91.042 333.455 85.798 L 333.455 85.798 L 333.455 85.798 Q 337.825 80.554 337.825 72.458 L 337.825 72.458 L 337.825 72.458 Q 337.825 64.362 333.547 59.21 L 333.547 59.21 L 333.547 59.21 Q 329.269 54.058 321.909 54.058 L 321.909 54.058 L 321.909 54.058 Q 314.365 54.058 309.949 59.164 L 309.949 59.164 L 309.949 59.164 Q 305.533 64.27 305.533 72.55 L 305.533 72.55 L 305.533 72.55 Q 305.533 80.646 309.903 85.844 L 309.903 85.844 L 309.903 85.844 Q 314.273 91.042 321.725 91.042 L 321.725 91.042 Z  M 359.077 98.862 L 359.077 91.134 L 365.057 91.134 L 365.057 53.966 L 359.077 53.966 L 359.077 46.238 L 389.345 46.238 L 389.345 46.238 Q 398.269 46.238 404.479 49.734 L 404.479 49.734 L 404.479 49.734 Q 410.689 53.23 413.817 59.164 L 413.817 59.164 L 413.817 59.164 Q 416.945 65.098 416.945 72.182 L 416.945 72.182 L 416.945 72.182 Q 416.945 84.326 409.861 91.594 L 409.861 91.594 L 409.861 91.594 Q 402.777 98.862 389.437 98.862 L 389.437 98.862 L 359.077 98.862 Z  M 377.661 91.134 L 387.413 91.134 L 387.413 91.134 Q 395.785 91.134 399.787 86.12 L 399.787 86.12 L 399.787 86.12 Q 403.789 81.106 403.789 72.274 L 403.789 72.274 L 403.789 72.274 Q 403.789 63.994 399.741 58.98 L 399.741 58.98 L 399.741 58.98 Q 395.693 53.966 387.505 53.966 L 387.505 53.966 L 377.661 53.966 L 377.661 91.134 Z  M 451.353 98.862 L 442.705 98.862 L 427.801 53.966 L 422.465 53.966 L 422.465 46.238 L 444.729 46.238 L 444.729 53.966 L 439.117 53.966 L 447.673 82.21 L 459.541 47.526 L 467.545 47.526 L 479.321 82.21 L 488.061 53.966 L 481.989 53.966 L 481.989 46.238 L 503.333 46.238 L 503.333 53.966 L 497.905 53.966 L 483.553 98.862 L 474.997 98.862 L 463.129 65.19 L 451.353 98.862 Z  M 538.201 99.874 L 538.201 99.874 Q 529.461 99.874 522.745 96.378 L 522.745 96.378 L 522.745 96.378 Q 516.029 92.882 512.395 86.672 L 512.395 86.672 L 512.395 86.672 Q 508.761 80.462 508.761 72.734 L 508.761 72.734 L 508.761 72.734 Q 508.761 64.914 512.395 58.658 L 512.395 58.658 L 512.395 58.658 Q 516.029 52.402 522.745 48.86 L 522.745 48.86 L 522.745 48.86 Q 529.461 45.318 538.201 45.318 L 538.201 45.318 L 538.201 45.318 Q 546.941 45.318 553.611 48.86 L 553.611 48.86 L 553.611 48.86 Q 560.281 52.402 563.915 58.658 L 563.915 58.658 L 563.915 58.658 Q 567.549 64.914 567.549 72.642 L 567.549 72.642 L 567.549 72.642 Q 567.549 80.462 563.915 86.672 L 563.915 86.672 L 563.915 86.672 Q 560.281 92.882 553.611 96.378 L 553.611 96.378 L 553.611 96.378 Q 546.941 99.874 538.201 99.874 L 538.201 99.874 Z  M 538.201 91.042 L 538.201 91.042 Q 545.561 91.042 549.931 85.798 L 549.931 85.798 L 549.931 85.798 Q 554.301 80.554 554.301 72.458 L 554.301 72.458 L 554.301 72.458 Q 554.301 64.362 550.023 59.21 L 550.023 59.21 L 550.023 59.21 Q 545.745 54.058 538.385 54.058 L 538.385 54.058 L 538.385 54.058 Q 530.841 54.058 526.425 59.164 L 526.425 59.164 L 526.425 59.164 Q 522.009 64.27 522.009 72.55 L 522.009 72.55 L 522.009 72.55 Q 522.009 80.646 526.379 85.844 L 526.379 85.844 L 526.379 85.844 Q 530.749 91.042 538.201 91.042 L 538.201 91.042 Z  M 575.461 98.862 L 575.461 91.134 L 581.441 91.134 L 581.441 53.966 L 575.461 53.966 L 575.461 46.238 L 605.821 46.238 L 605.821 46.238 Q 615.297 46.238 620.771 49.918 L 620.771 49.918 L 620.771 49.918 Q 626.245 53.598 626.245 61.142 L 626.245 61.142 L 626.245 61.142 Q 626.245 72.366 614.469 75.034 L 614.469 75.034 L 624.313 91.042 L 630.569 91.042 L 630.569 98.862 L 615.205 98.862 L 602.325 76.506 L 597.541 76.506 L 597.541 68.594 L 604.625 68.594 L 604.625 68.594 Q 609.225 68.594 611.295 66.524 L 611.295 66.524 L 611.295 66.524 Q 613.365 64.454 613.365 60.958 L 613.365 60.958 L 613.365 60.958 Q 613.365 57.83 611.341 55.898 L 611.341 55.898 L 611.341 55.898 Q 609.317 53.966 605.361 53.966 L 605.361 53.966 L 594.045 53.966 L 594.045 91.134 L 599.841 91.134 L 599.841 98.862 L 575.461 98.862 Z  M 662.125 98.862 L 637.469 98.862 L 637.469 91.134 L 643.449 91.134 L 643.449 53.966 L 637.469 53.966 L 637.469 46.238 L 662.125 46.238 L 662.125 53.966 L 656.145 53.966 L 656.145 70.986 L 673.809 53.966 L 668.749 53.966 L 668.749 46.238 L 692.025 46.238 L 692.025 53.966 L 686.873 53.966 L 668.197 71.906 L 687.701 91.134 L 692.853 91.134 L 692.853 98.862 L 668.565 98.862 L 668.565 91.134 L 673.349 91.134 L 656.145 73.838 L 656.145 91.134 L 662.125 91.134 L 662.125 98.862 Z " fill-rule="evenodd" fill="rgb(68,70,70)"/></g></g></svg>