<?xml version="1.0" standalone="no"?><!-- Generator: Gravit.io --><svg xmlns="http://www.w3.org/2000/svg" xmlns:xlink="http://www.w3.org/1999/xlink" style="isolation:isolate" viewBox="0 0 1400 280" width="1400" height="280"><defs><clipPath id="_clipPath_WobAu6w88uWJzWfw568N1C03sarfz8Gb"><rect width="1400" height="280"/></clipPath></defs><g clip-path="url(#_clipPath_WobAu6w88uWJzWfw568N1C03sarfz8Gb)"><g id="Group"><g id="Group"><linearGradient id="_lgradient_10" x1="6.10148555735459%" y1="6.998580157768597%" x2="79.76888223435377%" y2="91.62384697207038%"><stop offset="0%" stop-opacity="0.75" style="stop-color:rgb(77,191,164)"/><stop offset="100%" stop-opacity="0.75" style="stop-color:rgb(77,191,182)"/></linearGradient><path d=" M 33.907 148.482 L 109.607 180.586 L 99.336 201.24 C 97.167 205.602 92.497 206.464 88.913 203.164 L 32.274 151.015 C 28.69 147.715 29.422 146.581 33.907 148.482 Z " fill="url(#_lgradient_10)"/><linearGradient id="_lgradient_11" x1="5.606817678740741%" y1="5.288586431571613%" x2="87.83024353050861%" y2="89.26837212460381%"><stop offset="0%" stop-opacity="0.75" style="stop-color:rgb(82,196,204)"/><stop offset="100%" stop-opacity="0.75" style="stop-color:rgb(82,204,196)"/></linearGradient><path d=" M 151.469 88.3 L 73.407 178.437 L 71.821 180.023 C 71.04 180.804 69.537 181.655 68.466 181.922 L 66.407 182.437 L 88.221 202.526 C 92.187 206.178 97.352 205.222 99.749 200.393 L 154.411 90.258 C 157.846 83.337 156.528 82.459 151.469 88.3 Z " fill="url(#_lgradient_11)"/></g><path d=" M 198.17 145.696 L 220.25 145.696 L 220.25 149.1 L 220.25 149.1 Q 220.25 161.336 212.752 167.96 L 212.752 167.96 L 212.752 167.96 Q 205.254 174.584 192.558 174.584 L 192.558 174.584 L 192.558 174.584 Q 183.634 174.584 176.872 171.18 L 176.872 171.18 L 176.872 171.18 Q 170.11 167.776 166.476 161.566 L 166.476 161.566 L 166.476 161.566 Q 162.842 155.356 162.842 147.352 L 162.842 147.352 L 162.842 147.352 Q 162.842 139.348 166.43 133.138 L 166.43 133.138 L 166.43 133.138 Q 170.018 126.928 176.504 123.524 L 176.504 123.524 L 176.504 123.524 Q 182.99 120.12 191.362 120.12 L 191.362 120.12 L 191.362 120.12 Q 197.25 120.12 201.712 121.914 L 201.712 121.914 L 201.712 121.914 Q 206.174 123.708 209.026 127.02 L 209.026 127.02 L 209.026 121.04 L 217.858 121.04 L 217.858 138.888 L 210.222 138.888 L 210.222 138.888 Q 205.346 128.86 193.846 128.86 L 193.846 128.86 L 193.846 128.86 Q 185.75 128.86 180.966 133.736 L 180.966 133.736 L 180.966 133.736 Q 176.182 138.612 176.182 147.076 L 176.182 147.076 L 176.182 147.076 Q 176.182 155.724 180.782 160.738 L 180.782 160.738 L 180.782 160.738 Q 185.382 165.752 193.11 165.752 L 193.11 165.752 L 193.11 165.752 Q 199.458 165.66 203.506 162.67 L 203.506 162.67 L 203.506 162.67 Q 207.554 159.68 208.014 153.608 L 208.014 153.608 L 198.17 153.608 L 198.17 145.696 Z  M 258.154 174.676 L 258.154 174.676 Q 249.414 174.676 242.698 171.18 L 242.698 171.18 L 242.698 171.18 Q 235.982 167.684 232.348 161.474 L 232.348 161.474 L 232.348 161.474 Q 228.714 155.264 228.714 147.536 L 228.714 147.536 L 228.714 147.536 Q 228.714 139.716 232.348 133.46 L 232.348 133.46 L 232.348 133.46 Q 235.982 127.204 242.698 123.662 L 242.698 123.662 L 242.698 123.662 Q 249.414 120.12 258.154 120.12 L 258.154 120.12 L 258.154 120.12 Q 266.894 120.12 273.564 123.662 L 273.564 123.662 L 273.564 123.662 Q 280.234 127.204 283.868 133.46 L 283.868 133.46 L 283.868 133.46 Q 287.502 139.716 287.502 147.444 L 287.502 147.444 L 287.502 147.444 Q 287.502 155.264 283.868 161.474 L 283.868 161.474 L 283.868 161.474 Q 280.234 167.684 273.564 171.18 L 273.564 171.18 L 273.564 171.18 Q 266.894 174.676 258.154 174.676 L 258.154 174.676 Z  M 258.154 165.844 L 258.154 165.844 Q 265.514 165.844 269.884 160.6 L 269.884 160.6 L 269.884 160.6 Q 274.254 155.356 274.254 147.26 L 274.254 147.26 L 274.254 147.26 Q 274.254 139.164 269.976 134.012 L 269.976 134.012 L 269.976 134.012 Q 265.698 128.86 258.338 128.86 L 258.338 128.86 L 258.338 128.86 Q 250.794 128.86 246.378 133.966 L 246.378 133.966 L 246.378 133.966 Q 241.962 139.072 241.962 147.352 L 241.962 147.352 L 241.962 147.352 Q 241.962 155.448 246.332 160.646 L 246.332 160.646 L 246.332 160.646 Q 250.702 165.844 258.154 165.844 L 258.154 165.844 Z  M 324.578 174.676 L 324.578 174.676 Q 315.838 174.676 309.122 171.18 L 309.122 171.18 L 309.122 171.18 Q 302.406 167.684 298.772 161.474 L 298.772 161.474 L 298.772 161.474 Q 295.138 155.264 295.138 147.536 L 295.138 147.536 L 295.138 147.536 Q 295.138 139.716 298.772 133.46 L 298.772 133.46 L 298.772 133.46 Q 302.406 127.204 309.122 123.662 L 309.122 123.662 L 309.122 123.662 Q 315.838 120.12 324.578 120.12 L 324.578 120.12 L 324.578 120.12 Q 333.318 120.12 339.988 123.662 L 339.988 123.662 L 339.988 123.662 Q 346.658 127.204 350.292 133.46 L 350.292 133.46 L 350.292 133.46 Q 353.926 139.716 353.926 147.444 L 353.926 147.444 L 353.926 147.444 Q 353.926 155.264 350.292 161.474 L 350.292 161.474 L 350.292 161.474 Q 346.658 167.684 339.988 171.18 L 339.988 171.18 L 339.988 171.18 Q 333.318 174.676 324.578 174.676 L 324.578 174.676 Z  M 324.578 165.844 L 324.578 165.844 Q 331.938 165.844 336.308 160.6 L 336.308 160.6 L 336.308 160.6 Q 340.678 155.356 340.678 147.26 L 340.678 147.26 L 340.678 147.26 Q 340.678 139.164 336.4 134.012 L 336.4 134.012 L 336.4 134.012 Q 332.122 128.86 324.762 128.86 L 324.762 128.86 L 324.762 128.86 Q 317.218 128.86 312.802 133.966 L 312.802 133.966 L 312.802 133.966 Q 308.386 139.072 308.386 147.352 L 308.386 147.352 L 308.386 147.352 Q 308.386 155.448 312.756 160.646 L 312.756 160.646 L 312.756 160.646 Q 317.126 165.844 324.578 165.844 L 324.578 165.844 Z  M 361.93 173.664 L 361.93 165.936 L 367.91 165.936 L 367.91 128.768 L 361.93 128.768 L 361.93 121.04 L 392.198 121.04 L 392.198 121.04 Q 401.122 121.04 407.332 124.536 L 407.332 124.536 L 407.332 124.536 Q 413.542 128.032 416.67 133.966 L 416.67 133.966 L 416.67 133.966 Q 419.798 139.9 419.798 146.984 L 419.798 146.984 L 419.798 146.984 Q 419.798 159.128 412.714 166.396 L 412.714 166.396 L 412.714 166.396 Q 405.63 173.664 392.29 173.664 L 392.29 173.664 L 361.93 173.664 Z  M 380.514 165.936 L 390.266 165.936 L 390.266 165.936 Q 398.638 165.936 402.64 160.922 L 402.64 160.922 L 402.64 160.922 Q 406.642 155.908 406.642 147.076 L 406.642 147.076 L 406.642 147.076 Q 406.642 138.796 402.594 133.782 L 402.594 133.782 L 402.594 133.782 Q 398.546 128.768 390.358 128.768 L 390.358 128.768 L 380.514 128.768 L 380.514 165.936 Z  M 454.206 173.664 L 445.558 173.664 L 430.654 128.768 L 425.318 128.768 L 425.318 121.04 L 447.582 121.04 L 447.582 128.768 L 441.97 128.768 L 450.526 157.012 L 462.394 122.328 L 470.398 122.328 L 482.174 157.012 L 490.914 128.768 L 484.842 128.768 L 484.842 121.04 L 506.186 121.04 L 506.186 128.768 L 500.758 128.768 L 486.406 173.664 L 477.85 173.664 L 465.982 139.992 L 454.206 173.664 Z  M 541.054 174.676 L 541.054 174.676 Q 532.314 174.676 525.598 171.18 L 525.598 171.18 L 525.598 171.18 Q 518.882 167.684 515.248 161.474 L 515.248 161.474 L 515.248 161.474 Q 511.614 155.264 511.614 147.536 L 511.614 147.536 L 511.614 147.536 Q 511.614 139.716 515.248 133.46 L 515.248 133.46 L 515.248 133.46 Q 518.882 127.204 525.598 123.662 L 525.598 123.662 L 525.598 123.662 Q 532.314 120.12 541.054 120.12 L 541.054 120.12 L 541.054 120.12 Q 549.794 120.12 556.464 123.662 L 556.464 123.662 L 556.464 123.662 Q 563.134 127.204 566.768 133.46 L 566.768 133.46 L 566.768 133.46 Q 570.402 139.716 570.402 147.444 L 570.402 147.444 L 570.402 147.444 Q 570.402 155.264 566.768 161.474 L 566.768 161.474 L 566.768 161.474 Q 563.134 167.684 556.464 171.18 L 556.464 171.18 L 556.464 171.18 Q 549.794 174.676 541.054 174.676 L 541.054 174.676 Z  M 541.054 165.844 L 541.054 165.844 Q 548.414 165.844 552.784 160.6 L 552.784 160.6 L 552.784 160.6 Q 557.154 155.356 557.154 147.26 L 557.154 147.26 L 557.154 147.26 Q 557.154 139.164 552.876 134.012 L 552.876 134.012 L 552.876 134.012 Q 548.598 128.86 541.238 128.86 L 541.238 128.86 L 541.238 128.86 Q 533.694 128.86 529.278 133.966 L 529.278 133.966 L 529.278 133.966 Q 524.862 139.072 524.862 147.352 L 524.862 147.352 L 524.862 147.352 Q 524.862 155.448 529.232 160.646 L 529.232 160.646 L 529.232 160.646 Q 533.602 165.844 541.054 165.844 L 541.054 165.844 Z  M 578.314 173.664 L 578.314 165.936 L 584.294 165.936 L 584.294 128.768 L 578.314 128.768 L 578.314 121.04 L 608.674 121.04 L 608.674 121.04 Q 618.15 121.04 623.624 124.72 L 623.624 124.72 L 623.624 124.72 Q 629.098 128.4 629.098 135.944 L 629.098 135.944 L 629.098 135.944 Q 629.098 147.168 617.322 149.836 L 617.322 149.836 L 627.166 165.844 L 633.422 165.844 L 633.422 173.664 L 618.058 173.664 L 605.178 151.308 L 600.394 151.308 L 600.394 143.396 L 607.478 143.396 L 607.478 143.396 Q 612.078 143.396 614.148 141.326 L 614.148 141.326 L 614.148 141.326 Q 616.218 139.256 616.218 135.76 L 616.218 135.76 L 616.218 135.76 Q 616.218 132.632 614.194 130.7 L 614.194 130.7 L 614.194 130.7 Q 612.17 128.768 608.214 128.768 L 608.214 128.768 L 596.898 128.768 L 596.898 165.936 L 602.694 165.936 L 602.694 173.664 L 578.314 173.664 Z  M 664.978 173.664 L 640.322 173.664 L 640.322 165.936 L 646.302 165.936 L 646.302 128.768 L 640.322 128.768 L 640.322 121.04 L 664.978 121.04 L 664.978 128.768 L 658.998 128.768 L 658.998 145.788 L 676.662 128.768 L 671.602 128.768 L 671.602 121.04 L 694.878 121.04 L 694.878 128.768 L 689.726 128.768 L 671.05 146.708 L 690.554 165.936 L 695.706 165.936 L 695.706 173.664 L 671.418 173.664 L 671.418 165.936 L 676.202 165.936 L 658.998 148.64 L 658.998 165.936 L 664.978 165.936 L 664.978 173.664 Z " fill-rule="evenodd" fill="rgb(68,70,70)"/></g><g id="Group"><path d="M 1190.28 60 L 1309.72 60 C 1320.913 60 1330 69.087 1330 80.28 L 1330 199.72 C 1330 210.913 1320.913 220 1309.72 220 L 1190.28 220 C 1179.087 220 1170 210.913 1170 199.72 L 1170 80.28 C 1170 69.087 1179.087 60 1190.28 60 Z" style="stroke:none;fill:#3B3B3B;stroke-miterlimit:10;"/><g id="Group"><linearGradient id="_lgradient_12" x1="6.10148555735459%" y1="6.998580157768597%" x2="79.76888223435377%" y2="91.62384697207038%"><stop offset="0%" stop-opacity="0.75" style="stop-color:rgb(77,191,164)"/><stop offset="100%" stop-opacity="0.75" style="stop-color:rgb(77,191,182)"/></linearGradient><path d=" M 1187.745 144.68 L 1263.445 176.784 L 1253.175 197.438 C 1251.006 201.8 1246.335 202.662 1242.752 199.362 L 1186.112 147.213 C 1182.529 143.913 1183.26 142.779 1187.745 144.68 Z " fill="url(#_lgradient_12)"/><linearGradient id="_lgradient_13" x1="5.606817678740741%" y1="5.288586431571613%" x2="87.83024353050861%" y2="89.26837212460381%"><stop offset="0%" stop-opacity="0.75" style="stop-color:rgb(82,196,204)"/><stop offset="100%" stop-opacity="0.75" style="stop-color:rgb(82,204,196)"/></linearGradient><path d=" M 1305.308 84.498 L 1227.245 174.635 L 1225.659 176.221 C 1224.878 177.002 1223.375 177.853 1222.305 178.12 L 1220.245 178.635 L 1242.06 198.724 C 1246.025 202.376 1251.191 201.42 1253.587 196.591 L 1308.249 86.456 C 1311.684 79.535 1310.366 78.657 1305.308 84.498 Z " fill="url(#_lgradient_13)"/></g></g><g id="Group"><linearGradient id="_lgradient_14" x1="6.10148555735459%" y1="6.998580157768597%" x2="79.76888223435377%" y2="91.62384697207038%"><stop offset="0%" stop-opacity="0.75" style="stop-color:rgb(77,191,164)"/><stop offset="100%" stop-opacity="0.75" style="stop-color:rgb(77,191,182)"/></linearGradient><path d=" M 859.907 146.048 L 935.607 178.152 L 925.336 198.805 C 923.167 203.167 918.497 204.03 914.913 200.73 L 858.274 148.58 C 854.69 145.281 855.422 144.146 859.907 146.048 Z " fill="url(#_lgradient_14)"/><linearGradient id="_lgradient_15" x1="5.606817678740741%" y1="5.288586431571613%" x2="87.83024353050861%" y2="89.26837212460381%"><stop offset="0%" stop-opacity="0.75" style="stop-color:rgb(82,196,204)"/><stop offset="100%" stop-opacity="0.75" style="stop-color:rgb(82,204,196)"/></linearGradient><path d=" M 977.469 85.866 L 899.407 176.003 L 897.821 177.589 C 897.04 178.369 895.537 179.22 894.466 179.488 L 892.407 180.003 L 914.221 200.092 C 918.187 203.744 923.352 202.788 925.749 197.959 L 980.411 87.823 C 983.846 80.902 982.528 80.025 977.469 85.866 Z " fill="url(#_lgradient_15)"/></g><line x1="773" y1="60" x2="773" y2="220" vector-effect="non-scaling-stroke" stroke-width="1" stroke="rgb(149,146,146)" stroke-linejoin="miter" stroke-linecap="square" stroke-miterlimit="3"/><line x1="1073" y1="60" x2="1073" y2="220" vector-effect="non-scaling-stroke" stroke-width="1" stroke="rgb(149,146,146)" stroke-linejoin="miter" stroke-linecap="square" stroke-miterlimit="3"/></g></svg>