<?xml version="1.0" standalone="no"?><!-- Generator: Gravit.io --><svg xmlns="http://www.w3.org/2000/svg" xmlns:xlink="http://www.w3.org/1999/xlink" style="isolation:isolate" viewBox="0 0 720 160" width="720" height="160"><defs><clipPath id="_clipPath_Ja9DwK7exu5s1zU0GhrieFQxp2cBi9x9"><rect width="720" height="160"/></clipPath></defs><g clip-path="url(#_clipPath_Ja9DwK7exu5s1zU0GhrieFQxp2cBi9x9)"><g id="Group"><g id="Group"><g id="Group"><linearGradient id="_lgradient_6" x1="6.10148555735459%" y1="6.998580157768597%" x2="79.76888223435377%" y2="91.62384697207038%"><stop offset="0%" stop-opacity="0.75" style="stop-color:rgb(77,191,164)"/><stop offset="100%" stop-opacity="0.75" style="stop-color:rgb(77,191,182)"/></linearGradient><path d=" M 33.907 88.482 L 109.607 120.586 L 99.336 141.24 C 97.167 145.602 92.497 146.464 88.913 143.164 L 32.274 91.015 C 28.69 87.715 29.422 86.581 33.907 88.482 Z " fill="url(#_lgradient_6)"/><linearGradient id="_lgradient_7" x1="5.606817678740741%" y1="5.288586431571613%" x2="87.83024353050861%" y2="89.26837212460381%"><stop offset="0%" stop-opacity="0.75" style="stop-color:rgb(82,196,204)"/><stop offset="100%" stop-opacity="0.75" style="stop-color:rgb(82,204,196)"/></linearGradient><path d=" M 151.469 28.3 L 73.407 118.437 L 71.821 120.023 C 71.04 120.804 69.537 121.655 68.466 121.922 L 66.407 122.437 L 88.221 142.526 C 92.187 146.178 97.352 145.222 99.749 140.393 L 154.411 30.258 C 157.846 23.337 156.528 22.459 151.469 28.3 Z " fill="url(#_lgradient_7)"/></g><path d=" M 209.008 79.696 L 231.088 79.696 L 231.088 83.1 L 231.088 83.1 Q 231.088 95.336 223.59 101.96 L 223.59 101.96 L 223.59 101.96 Q 216.092 108.584 203.396 108.584 L 203.396 108.584 L 203.396 108.584 Q 194.472 108.584 187.71 105.18 L 187.71 105.18 L 187.71 105.18 Q 180.948 101.776 177.314 95.566 L 177.314 95.566 L 177.314 95.566 Q 173.68 89.356 173.68 81.352 L 173.68 81.352 L 173.68 81.352 Q 173.68 73.348 177.268 67.138 L 177.268 67.138 L 177.268 67.138 Q 180.856 60.928 187.342 57.524 L 187.342 57.524 L 187.342 57.524 Q 193.828 54.12 202.2 54.12 L 202.2 54.12 L 202.2 54.12 Q 208.088 54.12 212.55 55.914 L 212.55 55.914 L 212.55 55.914 Q 217.012 57.708 219.864 61.02 L 219.864 61.02 L 219.864 55.04 L 228.696 55.04 L 228.696 72.888 L 221.06 72.888 L 221.06 72.888 Q 216.184 62.86 204.684 62.86 L 204.684 62.86 L 204.684 62.86 Q 196.588 62.86 191.804 67.736 L 191.804 67.736 L 191.804 67.736 Q 187.02 72.612 187.02 81.076 L 187.02 81.076 L 187.02 81.076 Q 187.02 89.724 191.62 94.738 L 191.62 94.738 L 191.62 94.738 Q 196.22 99.752 203.948 99.752 L 203.948 99.752 L 203.948 99.752 Q 210.296 99.66 214.344 96.67 L 214.344 96.67 L 214.344 96.67 Q 218.392 93.68 218.852 87.608 L 218.852 87.608 L 209.008 87.608 L 209.008 79.696 Z  M 268.992 108.676 L 268.992 108.676 Q 260.252 108.676 253.536 105.18 L 253.536 105.18 L 253.536 105.18 Q 246.82 101.684 243.186 95.474 L 243.186 95.474 L 243.186 95.474 Q 239.552 89.264 239.552 81.536 L 239.552 81.536 L 239.552 81.536 Q 239.552 73.716 243.186 67.46 L 243.186 67.46 L 243.186 67.46 Q 246.82 61.204 253.536 57.662 L 253.536 57.662 L 253.536 57.662 Q 260.252 54.12 268.992 54.12 L 268.992 54.12 L 268.992 54.12 Q 277.732 54.12 284.402 57.662 L 284.402 57.662 L 284.402 57.662 Q 291.072 61.204 294.706 67.46 L 294.706 67.46 L 294.706 67.46 Q 298.34 73.716 298.34 81.444 L 298.34 81.444 L 298.34 81.444 Q 298.34 89.264 294.706 95.474 L 294.706 95.474 L 294.706 95.474 Q 291.072 101.684 284.402 105.18 L 284.402 105.18 L 284.402 105.18 Q 277.732 108.676 268.992 108.676 L 268.992 108.676 Z  M 268.992 99.844 L 268.992 99.844 Q 276.352 99.844 280.722 94.6 L 280.722 94.6 L 280.722 94.6 Q 285.092 89.356 285.092 81.26 L 285.092 81.26 L 285.092 81.26 Q 285.092 73.164 280.814 68.012 L 280.814 68.012 L 280.814 68.012 Q 276.536 62.86 269.176 62.86 L 269.176 62.86 L 269.176 62.86 Q 261.632 62.86 257.216 67.966 L 257.216 67.966 L 257.216 67.966 Q 252.8 73.072 252.8 81.352 L 252.8 81.352 L 252.8 81.352 Q 252.8 89.448 257.17 94.646 L 257.17 94.646 L 257.17 94.646 Q 261.54 99.844 268.992 99.844 L 268.992 99.844 Z  M 335.416 108.676 L 335.416 108.676 Q 326.676 108.676 319.96 105.18 L 319.96 105.18 L 319.96 105.18 Q 313.244 101.684 309.61 95.474 L 309.61 95.474 L 309.61 95.474 Q 305.976 89.264 305.976 81.536 L 305.976 81.536 L 305.976 81.536 Q 305.976 73.716 309.61 67.46 L 309.61 67.46 L 309.61 67.46 Q 313.244 61.204 319.96 57.662 L 319.96 57.662 L 319.96 57.662 Q 326.676 54.12 335.416 54.12 L 335.416 54.12 L 335.416 54.12 Q 344.156 54.12 350.826 57.662 L 350.826 57.662 L 350.826 57.662 Q 357.496 61.204 361.13 67.46 L 361.13 67.46 L 361.13 67.46 Q 364.764 73.716 364.764 81.444 L 364.764 81.444 L 364.764 81.444 Q 364.764 89.264 361.13 95.474 L 361.13 95.474 L 361.13 95.474 Q 357.496 101.684 350.826 105.18 L 350.826 105.18 L 350.826 105.18 Q 344.156 108.676 335.416 108.676 L 335.416 108.676 Z  M 335.416 99.844 L 335.416 99.844 Q 342.776 99.844 347.146 94.6 L 347.146 94.6 L 347.146 94.6 Q 351.516 89.356 351.516 81.26 L 351.516 81.26 L 351.516 81.26 Q 351.516 73.164 347.238 68.012 L 347.238 68.012 L 347.238 68.012 Q 342.96 62.86 335.6 62.86 L 335.6 62.86 L 335.6 62.86 Q 328.056 62.86 323.64 67.966 L 323.64 67.966 L 323.64 67.966 Q 319.224 73.072 319.224 81.352 L 319.224 81.352 L 319.224 81.352 Q 319.224 89.448 323.594 94.646 L 323.594 94.646 L 323.594 94.646 Q 327.964 99.844 335.416 99.844 L 335.416 99.844 Z  M 372.768 107.664 L 372.768 99.936 L 378.748 99.936 L 378.748 62.768 L 372.768 62.768 L 372.768 55.04 L 403.036 55.04 L 403.036 55.04 Q 411.96 55.04 418.17 58.536 L 418.17 58.536 L 418.17 58.536 Q 424.38 62.032 427.508 67.966 L 427.508 67.966 L 427.508 67.966 Q 430.636 73.9 430.636 80.984 L 430.636 80.984 L 430.636 80.984 Q 430.636 93.128 423.552 100.396 L 423.552 100.396 L 423.552 100.396 Q 416.468 107.664 403.128 107.664 L 403.128 107.664 L 372.768 107.664 Z  M 391.352 99.936 L 401.104 99.936 L 401.104 99.936 Q 409.476 99.936 413.478 94.922 L 413.478 94.922 L 413.478 94.922 Q 417.48 89.908 417.48 81.076 L 417.48 81.076 L 417.48 81.076 Q 417.48 72.796 413.432 67.782 L 413.432 67.782 L 413.432 67.782 Q 409.384 62.768 401.196 62.768 L 401.196 62.768 L 391.352 62.768 L 391.352 99.936 Z  M 465.044 107.664 L 456.396 107.664 L 441.492 62.768 L 436.156 62.768 L 436.156 55.04 L 458.42 55.04 L 458.42 62.768 L 452.808 62.768 L 461.364 91.012 L 473.232 56.328 L 481.236 56.328 L 493.012 91.012 L 501.752 62.768 L 495.68 62.768 L 495.68 55.04 L 517.024 55.04 L 517.024 62.768 L 511.596 62.768 L 497.244 107.664 L 488.688 107.664 L 476.82 73.992 L 465.044 107.664 Z  M 551.892 108.676 L 551.892 108.676 Q 543.152 108.676 536.436 105.18 L 536.436 105.18 L 536.436 105.18 Q 529.72 101.684 526.086 95.474 L 526.086 95.474 L 526.086 95.474 Q 522.452 89.264 522.452 81.536 L 522.452 81.536 L 522.452 81.536 Q 522.452 73.716 526.086 67.46 L 526.086 67.46 L 526.086 67.46 Q 529.72 61.204 536.436 57.662 L 536.436 57.662 L 536.436 57.662 Q 543.152 54.12 551.892 54.12 L 551.892 54.12 L 551.892 54.12 Q 560.632 54.12 567.302 57.662 L 567.302 57.662 L 567.302 57.662 Q 573.972 61.204 577.606 67.46 L 577.606 67.46 L 577.606 67.46 Q 581.24 73.716 581.24 81.444 L 581.24 81.444 L 581.24 81.444 Q 581.24 89.264 577.606 95.474 L 577.606 95.474 L 577.606 95.474 Q 573.972 101.684 567.302 105.18 L 567.302 105.18 L 567.302 105.18 Q 560.632 108.676 551.892 108.676 L 551.892 108.676 Z  M 551.892 99.844 L 551.892 99.844 Q 559.252 99.844 563.622 94.6 L 563.622 94.6 L 563.622 94.6 Q 567.992 89.356 567.992 81.26 L 567.992 81.26 L 567.992 81.26 Q 567.992 73.164 563.714 68.012 L 563.714 68.012 L 563.714 68.012 Q 559.436 62.86 552.076 62.86 L 552.076 62.86 L 552.076 62.86 Q 544.532 62.86 540.116 67.966 L 540.116 67.966 L 540.116 67.966 Q 535.7 73.072 535.7 81.352 L 535.7 81.352 L 535.7 81.352 Q 535.7 89.448 540.07 94.646 L 540.07 94.646 L 540.07 94.646 Q 544.44 99.844 551.892 99.844 L 551.892 99.844 Z  M 589.152 107.664 L 589.152 99.936 L 595.132 99.936 L 595.132 62.768 L 589.152 62.768 L 589.152 55.04 L 619.512 55.04 L 619.512 55.04 Q 628.988 55.04 634.462 58.72 L 634.462 58.72 L 634.462 58.72 Q 639.936 62.4 639.936 69.944 L 639.936 69.944 L 639.936 69.944 Q 639.936 81.168 628.16 83.836 L 628.16 83.836 L 638.004 99.844 L 644.26 99.844 L 644.26 107.664 L 628.896 107.664 L 616.016 85.308 L 611.232 85.308 L 611.232 77.396 L 618.316 77.396 L 618.316 77.396 Q 622.916 77.396 624.986 75.326 L 624.986 75.326 L 624.986 75.326 Q 627.056 73.256 627.056 69.76 L 627.056 69.76 L 627.056 69.76 Q 627.056 66.632 625.032 64.7 L 625.032 64.7 L 625.032 64.7 Q 623.008 62.768 619.052 62.768 L 619.052 62.768 L 607.736 62.768 L 607.736 99.936 L 613.532 99.936 L 613.532 107.664 L 589.152 107.664 Z  M 675.816 107.664 L 651.16 107.664 L 651.16 99.936 L 657.14 99.936 L 657.14 62.768 L 651.16 62.768 L 651.16 55.04 L 675.816 55.04 L 675.816 62.768 L 669.836 62.768 L 669.836 79.788 L 687.5 62.768 L 682.44 62.768 L 682.44 55.04 L 705.716 55.04 L 705.716 62.768 L 700.564 62.768 L 681.888 80.708 L 701.392 99.936 L 706.544 99.936 L 706.544 107.664 L 682.256 107.664 L 682.256 99.936 L 687.04 99.936 L 669.836 82.64 L 669.836 99.936 L 675.816 99.936 L 675.816 107.664 Z " fill-rule="evenodd" fill="rgb(68,70,70)"/></g><g id="Group"><path d="M 20.28 0 L 139.72 0 C 150.913 0 160 9.087 160 20.28 L 160 139.72 C 160 150.913 150.913 160 139.72 160 L 20.28 160 C 9.087 160 0 150.913 0 139.72 L 0 20.28 C 0 9.087 9.087 0 20.28 0 Z" style="stroke:none;fill:#3B3B3B;stroke-miterlimit:10;"/><g id="Group"><linearGradient id="_lgradient_8" x1="6.10148555735459%" y1="6.998580157768597%" x2="79.76888223435377%" y2="91.62384697207038%"><stop offset="0%" stop-opacity="0.75" style="stop-color:rgb(77,191,164)"/><stop offset="100%" stop-opacity="0.75" style="stop-color:rgb(77,191,182)"/></linearGradient><path d=" M 17.745 84.68 L 93.445 116.784 L 83.175 137.438 C 81.006 141.8 76.335 142.662 72.752 139.362 L 16.112 87.213 C 12.529 83.913 13.26 82.779 17.745 84.68 Z " fill="url(#_lgradient_8)"/><linearGradient id="_lgradient_9" x1="5.606817678740741%" y1="5.288586431571613%" x2="87.83024353050861%" y2="89.26837212460381%"><stop offset="0%" stop-opacity="0.75" style="stop-color:rgb(82,196,204)"/><stop offset="100%" stop-opacity="0.75" style="stop-color:rgb(82,204,196)"/></linearGradient><path d=" M 135.308 24.498 L 57.245 114.635 L 55.659 116.221 C 54.878 117.002 53.375 117.853 52.305 118.12 L 50.245 118.635 L 72.06 138.724 C 76.025 142.376 81.191 141.42 83.587 136.591 L 138.249 26.456 C 141.684 19.535 140.366 18.657 135.308 24.498 Z " fill="url(#_lgradient_9)"/></g></g></g></g></svg>