<svg width="400" height="400" viewBox="0 0 400 400" fill="none" xmlns="http://www.w3.org/2000/svg">
<rect width="400" height="400" rx="40" fill="white"/>
<rect x="200" y="115" width="160" height="16" rx="8" fill="#667EEA"/>
<rect x="240" y="144" width="120" height="16" rx="8" fill="#667EEA"/>
<rect x="280" y="173" width="80" height="16" rx="8" fill="#667EEA"/>
<path d="M200 58C200 48.0589 191.909 39.8937 182.029 40.998C102.123 49.9291 40 117.71 40 200C40 288.366 111.634 360 200 360C282.29 360 350.071 297.877 359.002 217.971C360.106 208.091 351.941 200 342 200H318C308.059 200 300.169 208.129 298.4 217.912C289.959 264.593 249.114 300 200 300C144.772 300 100 255.228 100 200C100 150.886 135.407 110.041 182.088 101.6C191.871 99.8306 200 91.9411 200 82V58Z" fill="#667EEA"/>
</svg>
