<?xml version="1.0" standalone="no"?><!-- Generator: Gravit.io --><svg xmlns="http://www.w3.org/2000/svg" xmlns:xlink="http://www.w3.org/1999/xlink" style="isolation:isolate" viewBox="0 0 512 512" width="512" height="512"><defs><clipPath id="_clipPath_9xIFru5JNr0CJPspQC65mnmGS1yMJim3"><rect width="512" height="512"/></clipPath></defs><g clip-path="url(#_clipPath_9xIFru5JNr0CJPspQC65mnmGS1yMJim3)"><g id="Group"><path d="M 64.896 0 L 447.104 0 C 482.921 0 512 29.079 512 64.896 L 512 447.104 C 512 482.921 482.921 512 447.104 512 L 64.896 512 C 29.079 512 0 482.921 0 447.104 L 0 64.896 C 0 29.079 29.079 0 64.896 0 Z" style="stroke:none;fill:#3B3B3B;stroke-miterlimit:10;"/><g id="Group"><linearGradient id="_lgradient_0" x1="6.10148555735459%" y1="6.998580157768597%" x2="79.76888223435377%" y2="91.62384697207038%"><stop offset="0%" stop-opacity="0.75" style="stop-color:rgb(77,191,164)"/><stop offset="100%" stop-opacity="0.75" style="stop-color:rgb(77,191,182)"/></linearGradient><path d=" M 56.784 270.977 L 299.023 373.71 L 266.159 439.801 C 259.218 453.759 244.273 456.518 232.805 445.96 L 51.559 279.081 C 40.092 268.522 42.433 264.891 56.784 270.977 Z " fill="url(#_lgradient_0)"/><linearGradient id="_lgradient_1" x1="5.606817678740741%" y1="5.288586431571613%" x2="87.83024353050861%" y2="89.26837212460381%"><stop offset="0%" stop-opacity="0.75" style="stop-color:rgb(82,196,204)"/><stop offset="100%" stop-opacity="0.75" style="stop-color:rgb(82,204,196)"/></linearGradient><path d=" M 432.985 78.395 L 183.183 366.833 L 178.109 371.907 C 175.611 374.405 170.801 377.128 167.374 377.985 L 160.783 379.633 L 230.591 443.917 C 243.281 455.603 259.81 452.545 267.479 437.093 L 442.397 84.659 C 453.389 62.511 449.172 59.704 432.985 78.395 Z " fill="url(#_lgradient_1)"/></g></g></g></svg>