<svg width="600" height="600" viewBox="0 0 600 600" fill="none" xmlns="http://www.w3.org/2000/svg">
    <rect width="600" height="600" rx="120" fill="white"/>
    <rect x="50" y="50" width="500" height="500" rx="100" fill="black"/>
    <path class="fill-current text-green-400" d="M285.399 457.345C285.399 463.932 276.185 464.298 269.633 463.63C199.157 456.445 143.101 400.525 135.706 330.112C135.028 323.648 135.446 314.598 141.945 314.598V314.598H278.332C282.235 314.598 285.399 317.762 285.399 321.665V457.345V457.345Z" fill="#68D391"/>
    <path class="fill-current text-green-400" d="M320.478 464.312C398.827 461.479 461.87 398.623 465 320.351C464.384 317.076 461.509 314.598 458.055 314.598H321.668C317.765 314.598 314.601 317.762 314.601 321.665V457.345C314.601 460.842 317.142 463.746 320.478 464.312Z" fill="#68D391"/>
    <path class="fill-current text-green-400" d="M283.839 137.539C281.704 134.887 277.797 135.034 274.401 135.272C200.326 140.459 141.065 199.371 135.333 273.295C135.041 277.051 134.916 281.48 138.062 283.553C139.176 284.287 140.511 284.714 141.945 284.714H278.332C282.235 284.714 285.399 281.55 285.399 277.647V141.967C285.399 140.29 284.815 138.75 283.839 137.539Z" fill="#68D391"/>
</svg>
